<svg width="139" height="26" viewBox="0 0 139 26" fill="none" xmlns="http://www.w3.org/2000/svg">
<path d="M34.3623 19.1856V6.21643H42.6497V8.18318H36.7067V11.7034H42.0796V13.6701H36.7067V19.1856H34.3623Z" fill="black"/>
<path d="M44.823 19.1856H42.3218L46.8752 6.21643H49.7256L54.3218 19.1856H51.8206L48.3717 8.87439H48.2648L44.823 19.1856ZM44.9014 14.1048H51.728V15.9789H44.9014V14.1048Z" fill="black"/>
<path d="M62.8513 9.77931C62.8357 9.52492 62.7636 9.27719 62.6404 9.0541C62.5171 8.83102 62.3458 8.63816 62.1387 8.48952C61.6363 8.16029 61.0428 7.99818 60.4428 8.02634C60.0141 8.0148 59.5875 8.08994 59.1886 8.24724C58.8718 8.37174 58.5939 8.57834 58.3834 8.84582C58.1979 9.0973 58.1003 9.40276 58.1055 9.71518C58.0958 9.96575 58.1603 10.2136 58.2907 10.4278C58.4202 10.6296 58.593 10.8 58.7967 10.9266C59.0201 11.0697 59.2592 11.1869 59.5093 11.2757C59.7679 11.3681 60.0321 11.4443 60.3002 11.5038L61.5117 11.8102C61.9993 11.9229 62.4761 12.0778 62.9368 12.2734C63.3763 12.4487 63.787 12.6889 64.1554 12.986C64.516 13.2746 64.808 13.6397 65.0105 14.0548C65.2131 14.5213 65.301 15.0296 65.267 15.537C65.2785 16.2471 65.0775 16.9444 64.6898 17.5394C64.2717 18.1391 63.6906 18.6064 63.0152 18.8862C61.3176 19.523 59.4468 19.523 57.7492 18.8862C57.0484 18.6134 56.4419 18.1431 56.0033 17.5323C55.5717 16.8839 55.3389 16.1235 55.3335 15.3446H57.6352C57.6528 15.7537 57.7973 16.1472 58.0485 16.4705C58.302 16.7774 58.6347 17.0091 59.0105 17.1404C59.4327 17.2938 59.8795 17.3686 60.3287 17.3613C60.7977 17.3766 61.2651 17.2991 61.704 17.1332C62.0577 17.0008 62.3699 16.7771 62.609 16.4848C62.8252 16.2079 62.943 15.8669 62.944 15.5157C62.9476 15.2108 62.8414 14.9148 62.6447 14.6819C62.4195 14.4357 62.1419 14.2433 61.8323 14.119C61.4389 13.9562 61.034 13.8229 60.6209 13.7199L59.1459 13.3423C58.2178 13.1329 57.3531 12.7055 56.6233 12.0952C56.3169 11.8124 56.0755 11.4666 55.9156 11.0816C55.7557 10.6966 55.6811 10.2814 55.6969 9.86482C55.6814 9.14456 55.9016 8.43895 56.324 7.85532C56.7595 7.26527 57.3451 6.80268 58.02 6.51565C58.7878 6.18886 59.6155 6.02624 60.4499 6.03822C61.2799 6.02396 62.1034 6.18672 62.8656 6.51565C63.5173 6.80514 64.0804 7.26254 64.4974 7.84107C64.8922 8.41071 65.1058 9.08626 65.1102 9.77931H62.8513Z" fill="black"/>
<path d="M66.7993 8.18318V6.21643H77.1176V8.18318H73.1057V19.1856H70.7969V8.18318H66.7993Z" fill="black"/>
<path d="M83.5093 19.1856V6.21643H91.7967V8.18318H85.8537V11.7034H91.2266V13.6701H85.8537V19.1856H83.5093Z" fill="black"/>
<path d="M93.9704 19.1856H91.4692L96.0227 6.21643H98.9087L103.469 19.1856H100.968L97.5191 8.88864H97.4194L93.9704 19.1856ZM94.0488 14.1048H100.897V15.9789H94.0773L94.0488 14.1048Z" fill="black"/>
<path d="M115.64 10.5917H113.274C113.216 10.2251 113.09 9.87231 112.904 9.55137C112.729 9.25612 112.499 8.99725 112.227 8.7889C111.952 8.57495 111.64 8.41313 111.307 8.31146C110.95 8.20125 110.577 8.14599 110.203 8.14757C109.54 8.13726 108.889 8.32052 108.329 8.67488C107.764 9.05562 107.323 9.59311 107.06 10.2212C106.729 11.0023 106.571 11.8459 106.597 12.6939C106.573 13.551 106.73 14.4036 107.06 15.1951C107.313 15.8148 107.748 16.343 108.308 16.7095C108.868 17.0761 109.527 17.2637 110.196 17.2473C110.565 17.2472 110.932 17.1944 111.286 17.0906C111.614 16.9899 111.923 16.8332 112.198 16.6274C112.478 16.4359 112.719 16.1943 112.911 15.9148C113.101 15.6043 113.231 15.2612 113.295 14.9029H115.661C115.572 15.5118 115.377 16.1002 115.084 16.6416C114.791 17.1801 114.405 17.6626 113.944 18.0668C113.458 18.4796 112.9 18.7986 112.298 19.0074C111.611 19.2464 110.887 19.3622 110.16 19.3495C109.093 19.3666 108.041 19.0932 107.117 18.5585C106.203 18.017 105.461 17.226 104.98 16.2782C104.443 15.1688 104.179 13.9473 104.21 12.7153C104.181 11.4827 104.448 10.2611 104.987 9.15232C105.469 8.20499 106.21 7.41418 107.124 6.87203C108.041 6.32131 109.091 6.03291 110.16 6.0383C110.842 6.03123 111.521 6.13471 112.17 6.34472C112.771 6.53617 113.332 6.83826 113.823 7.23545C114.312 7.62684 114.719 8.11121 115.02 8.66063C115.346 9.25982 115.556 9.91489 115.64 10.5917Z" fill="black"/>
<path d="M117.222 8.18318V6.21643H127.54V8.18318H123.543V19.1856H121.22V8.18318H117.222Z" fill="black"/>
<path d="M136.526 9.77933C136.509 9.52616 136.437 9.27984 136.314 9.05806C136.19 8.83628 136.019 8.64455 135.813 8.49666C135.311 8.16743 134.717 8.00532 134.117 8.03348C133.689 8.02194 133.262 8.09708 132.863 8.25438C132.546 8.37888 132.268 8.58548 132.058 8.85296C131.873 9.10445 131.775 9.4099 131.78 9.72232C131.77 9.9729 131.835 10.2208 131.965 10.4349C132.095 10.6368 132.268 10.8072 132.471 10.9337C132.695 11.0769 132.934 11.194 133.184 11.2829C133.443 11.3753 133.707 11.4514 133.975 11.5109L135.186 11.8173C135.674 11.93 136.151 12.085 136.611 12.2805C137.049 12.4591 137.46 12.699 137.83 12.9931C138.191 13.2817 138.483 13.6468 138.685 14.062C138.905 14.5193 139.013 15.0226 138.999 15.5299C139.01 16.24 138.809 16.9373 138.421 17.5323C138.003 18.132 137.422 18.5993 136.747 18.8791C135.049 19.5159 133.178 19.5159 131.481 18.8791C130.783 18.6001 130.182 18.1248 129.749 17.5109C129.306 16.8656 129.058 16.1059 129.037 15.3233H131.345C131.363 15.7324 131.507 16.1258 131.759 16.4492C132.012 16.7561 132.345 16.9877 132.721 17.119C133.143 17.2724 133.59 17.3473 134.039 17.3399C134.496 17.3516 134.951 17.2742 135.379 17.1119C135.735 16.9805 136.05 16.7567 136.291 16.4634C136.507 16.1865 136.625 15.8456 136.626 15.4943C136.629 15.1894 136.523 14.8935 136.326 14.6606C136.101 14.4143 135.824 14.2219 135.514 14.0976C135.121 13.9349 134.716 13.8015 134.303 13.6986L132.828 13.3209C131.9 13.1116 131.035 12.6841 130.305 12.0739C129.999 11.7911 129.757 11.4453 129.597 11.0602C129.437 10.6752 129.363 10.2601 129.379 9.84346C129.363 9.1232 129.583 8.41759 130.006 7.83396C130.441 7.24391 131.027 6.78132 131.702 6.49429C132.47 6.1675 133.297 6.00488 134.132 6.01685C134.962 6.0026 135.785 6.16536 136.547 6.49429C137.199 6.78378 137.762 7.24118 138.179 7.8197C138.574 8.38935 138.787 9.0649 138.792 9.75795L136.526 9.77933Z" fill="black"/>
<path d="M6.41452 18.644C6.34739 18.6448 6.28085 18.6312 6.2194 18.6042C6.15794 18.5771 6.10298 18.5372 6.05823 18.4872C5.96987 18.3967 5.92041 18.2752 5.92041 18.1487C5.92041 18.0222 5.96987 17.9007 6.05823 17.8102L8.66631 15.4017C8.7125 15.3555 8.76756 15.3191 8.82818 15.2947C8.88879 15.2704 8.95371 15.2585 9.01903 15.2599C9.08434 15.2612 9.14871 15.2758 9.20826 15.3027C9.2678 15.3295 9.3213 15.3682 9.36553 15.4163C9.40977 15.4643 9.44382 15.5209 9.46565 15.5824C9.48747 15.644 9.49662 15.7094 9.49255 15.7746C9.48847 15.8398 9.47125 15.9035 9.44192 15.9619C9.41259 16.0202 9.37176 16.0721 9.32189 16.1143L6.74231 18.5157C6.65262 18.5974 6.53587 18.6431 6.41452 18.644Z" fill="black"/>
<path d="M7.54764 19.8982C7.48156 19.8989 7.4161 19.8853 7.35581 19.8582C7.29552 19.8311 7.24184 19.7913 7.19847 19.7414C7.14723 19.6973 7.10611 19.6426 7.07793 19.5811C7.04975 19.5196 7.03516 19.4527 7.03516 19.3851C7.03516 19.3175 7.04975 19.2506 7.07793 19.1891C7.10611 19.1276 7.14723 19.073 7.19847 19.0288L9.81368 16.6131C9.85804 16.5685 9.91078 16.5331 9.96887 16.509C10.027 16.4848 10.0892 16.4724 10.1522 16.4724C10.2151 16.4724 10.2774 16.4848 10.3354 16.509C10.3935 16.5331 10.4463 16.5685 10.4906 16.6131C10.5399 16.6585 10.5792 16.7136 10.606 16.7749C10.6329 16.8362 10.6468 16.9025 10.6468 16.9694C10.6468 17.0364 10.6329 17.1026 10.606 17.1639C10.5792 17.2253 10.5399 17.2803 10.4906 17.3257L7.86831 19.7414C7.78571 19.8332 7.67078 19.8893 7.54764 19.8982Z" fill="black"/>
<path d="M2.83008 25.0572C2.58514 25.0574 2.34283 25.0068 2.1184 24.9087C1.89397 24.8106 1.69228 24.667 1.52604 24.4872L0.898962 23.8173C0.588034 23.4707 0.423897 23.0169 0.44118 22.5516C0.458463 22.0863 0.655814 21.6459 0.991599 21.3233L4.74695 18.1594C4.84341 18.0977 4.95881 18.0728 5.07212 18.0891C5.18543 18.1054 5.2891 18.1619 5.36424 18.2483C5.43938 18.3347 5.48098 18.4452 5.48147 18.5596C5.48196 18.6741 5.4413 18.7849 5.3669 18.872L1.6258 22.0359C1.4752 22.1902 1.39091 22.3974 1.39091 22.613C1.39091 22.8287 1.4752 23.0359 1.6258 23.1902L2.25288 23.8601C2.32565 23.9403 2.41371 24.0051 2.5119 24.0508C2.61009 24.0965 2.71642 24.1221 2.82464 24.126C2.93286 24.13 3.04078 24.1123 3.14206 24.074C3.24334 24.0357 3.33594 23.9775 3.4144 23.9028L6.83483 20.3826C6.87928 20.3359 6.93251 20.2983 6.99148 20.2721C7.05046 20.2458 7.11401 20.2315 7.17853 20.2298C7.24305 20.2282 7.30726 20.2393 7.36749 20.2624C7.42773 20.2856 7.48282 20.3204 7.52961 20.3648C7.5764 20.4093 7.61397 20.4625 7.64019 20.5215C7.66641 20.5805 7.68075 20.644 7.68241 20.7085C7.68406 20.773 7.67299 20.8373 7.64983 20.8975C7.62667 20.9577 7.59187 21.0128 7.54742 21.0596L4.12699 24.5655C3.77629 24.8938 3.31026 25.0705 2.83008 25.0572Z" fill="black"/>
<path d="M7.1411 21.2021C7.04989 21.1942 6.9628 21.1606 6.88991 21.1052C6.81702 21.0498 6.76131 20.9748 6.72925 20.8891C6.69718 20.8033 6.69007 20.7102 6.70873 20.6206C6.72739 20.531 6.77106 20.4485 6.83469 20.3826C7.02351 20.1932 7.1309 19.9375 7.13398 19.67C7.13777 19.5334 7.1146 19.3974 7.0658 19.2697C7.01699 19.142 6.9435 19.0252 6.84953 18.9259C6.75556 18.8267 6.64294 18.7469 6.51813 18.6912C6.39331 18.6354 6.25874 18.6048 6.1221 18.6012C5.86144 18.5981 5.60843 18.6892 5.40951 18.8577C5.36427 18.9072 5.3091 18.9466 5.2476 18.9734C5.1861 19.0002 5.11965 19.0137 5.05258 19.0131C4.98551 19.0125 4.91932 18.9977 4.85833 18.9698C4.79734 18.9419 4.74292 18.9014 4.69861 18.8511C4.6543 18.8007 4.62109 18.7416 4.60116 18.6775C4.58123 18.6135 4.57501 18.546 4.58292 18.4794C4.59083 18.4128 4.61268 18.3486 4.64706 18.291C4.68143 18.2334 4.72756 18.1837 4.78243 18.1451C5.15274 17.8194 5.62892 17.6396 6.1221 17.6392C6.38604 17.6484 6.64559 17.7095 6.88589 17.8191C7.12619 17.9286 7.34253 18.0845 7.52254 18.2778C7.70256 18.471 7.84271 18.6979 7.93499 18.9453C8.02727 19.1928 8.06987 19.456 8.06034 19.7199C8.04534 20.2236 7.83894 20.7027 7.48314 21.0596C7.43851 21.1049 7.38525 21.1409 7.32651 21.1654C7.26777 21.1899 7.20474 21.2023 7.1411 21.2021Z" fill="black"/>
<path d="M16.2836 19.6558H15.9344C13.4477 19.6098 11.0798 18.5838 9.34572 16.8009C7.61165 15.018 6.65171 12.6225 6.67472 10.1355C6.69773 7.64847 7.70184 5.27115 9.46861 3.52065C11.2354 1.77015 13.6219 0.788086 16.109 0.788086C18.5961 0.788086 20.9826 1.77015 22.7494 3.52065C24.5162 5.27115 25.5203 7.64847 25.5433 10.1355C25.5663 12.6225 24.6064 15.018 22.8723 16.8009C21.1382 18.5838 18.7703 19.6098 16.2836 19.6558ZM16.2836 1.6202C14.0702 1.61864 11.9424 2.47541 10.3477 4.01034C8.75294 5.54526 7.81551 7.63876 7.73251 9.85061C7.65554 12.1141 8.47965 14.3156 10.024 15.9722C11.5683 17.6287 13.7068 18.605 15.97 18.6867C17.0908 18.7338 18.2097 18.5563 19.2609 18.1647C20.3121 17.7731 21.2744 17.1753 22.0912 16.4064C23.7431 14.8603 24.7149 12.7224 24.7937 10.4612C24.8725 8.19998 24.0519 5.99969 22.5116 4.34229C21.751 3.51767 20.8337 2.85287 19.8133 2.38672C18.793 1.92056 17.6899 1.66241 16.5686 1.62733L16.2836 1.6202Z" fill="black"/>
<path d="M16.3406 15.8934C16.264 15.8947 16.1883 15.8776 16.1197 15.8435C16.0409 15.8031 15.9746 15.7419 15.9282 15.6665C15.8817 15.5912 15.8567 15.5045 15.8561 15.4159V12.9931H11.1102C11.0406 13.0081 10.9685 13.0073 10.8992 12.9908C10.8299 12.9743 10.7652 12.9425 10.7098 12.8978C10.6544 12.853 10.6097 12.7965 10.579 12.7322C10.5483 12.6679 10.5323 12.5976 10.5323 12.5264C10.5323 12.4551 10.5483 12.3848 10.579 12.3206C10.6097 12.2563 10.6544 12.1997 10.7098 12.1549C10.7652 12.1102 10.8299 12.0784 10.8992 12.0619C10.9685 12.0454 11.0406 12.0446 11.1102 12.0596H16.3477C16.4104 12.0596 16.4725 12.072 16.5304 12.096C16.5884 12.12 16.641 12.1551 16.6853 12.1995C16.7297 12.2438 16.7648 12.2964 16.7888 12.3544C16.8128 12.4123 16.8252 12.4744 16.8252 12.5371V14.4824L22.5259 10.4634L16.8109 6.44442V8.42542C16.8119 8.48871 16.8002 8.55156 16.7766 8.61031C16.7531 8.66906 16.7181 8.72254 16.6736 8.76763C16.6292 8.81272 16.5763 8.84853 16.5179 8.87297C16.4595 8.8974 16.3968 8.90998 16.3335 8.90998H9.27173C9.20365 8.91828 9.13458 8.91203 9.0691 8.89166C9.00361 8.87128 8.94319 8.83723 8.89185 8.79176C8.8405 8.74629 8.79939 8.69044 8.77123 8.62791C8.74307 8.56537 8.72852 8.49756 8.72852 8.42898C8.72852 8.36039 8.74307 8.29259 8.77123 8.23005C8.79939 8.16751 8.8405 8.11166 8.89185 8.0662C8.94319 8.02073 9.00361 7.98668 9.0691 7.9663C9.13458 7.94592 9.20365 7.93968 9.27173 7.94798H15.8561V5.51805C15.8567 5.4295 15.8817 5.34282 15.9282 5.26744C15.9746 5.19207 16.0409 5.13087 16.1197 5.0905C16.1945 5.04372 16.2809 5.01892 16.3691 5.01892C16.4573 5.01892 16.5437 5.04372 16.6185 5.0905L23.6019 10.0359C23.6651 10.0806 23.7167 10.1399 23.7523 10.2087C23.7879 10.2775 23.8065 10.3539 23.8065 10.4314C23.8065 10.5088 23.7879 10.5852 23.7523 10.654C23.7167 10.7228 23.6651 10.7821 23.6019 10.8268L16.6185 15.7722C16.541 15.8409 16.4437 15.8833 16.3406 15.8934Z" fill="black"/>
</svg>
