<svg width="219" height="19" viewBox="0 0 219 19" fill="none" xmlns="http://www.w3.org/2000/svg">
<path d="M6.91482 2.09122C6.91482 2.7369 7.43362 3.25935 8.07479 3.25935C8.71596 3.25935 9.23477 2.7369 9.23477 2.09122C9.23477 1.44555 8.72575 0.932953 8.09437 0.923096H8.05032C7.41894 0.932953 6.91482 1.45541 6.91482 2.09122Z" fill="black"/>
<path d="M10.7325 18.9132C11.0849 18.8541 11.3198 18.5189 11.2611 18.1641C11.1093 17.267 9.827 16.4981 7.00781 15.1427C9.04389 13.043 11.4813 10.2287 11.2611 8.95212C11.0947 7.98607 9.61164 7.16296 6.28833 5.58575C6.55752 5.3048 6.83161 5.02386 7.1008 4.75278C7.35042 4.50141 7.35042 4.08739 7.1008 3.83602C6.85119 3.58465 6.44006 3.58465 6.19044 3.83602C6.18065 3.84588 5.72547 4.30919 5.06473 5.00908C3.47893 4.25004 1.52117 3.26921 1.28623 2.80097C1.22261 2.49539 0.958308 2.28345 0.654854 2.28345C0.620593 2.28345 0.581438 2.28345 0.547177 2.2933C0.194779 2.35245 -0.0401532 2.68761 0.0185798 3.04248C0.165412 3.92474 1.41349 4.68378 4.13968 5.99977C3.79218 6.37929 3.4251 6.7933 3.06291 7.21225C0.189885 10.5392 -0.0890974 11.6285 0.0185798 12.2544C0.180096 13.2007 1.60927 14.0091 4.79064 15.5271C4.63891 15.675 3.49362 16.7495 3.337 16.8974C3.07759 17.1438 3.0678 17.5529 3.31252 17.8141C3.55724 18.0753 3.96838 18.0852 4.22289 17.8388C4.46271 17.6071 5.73037 16.4193 6.03872 16.1137C7.65387 16.8826 9.75358 17.9176 9.99341 18.4056C10.057 18.7112 10.3213 18.9231 10.6248 18.9231C10.659 18.9231 10.6982 18.9231 10.7325 18.9132ZM5.76463 14.5562C4.13479 13.7873 1.58479 12.5748 1.28623 12.0277C1.30092 11.3426 3.17548 8.95705 5.3535 6.58629C5.3535 6.58629 5.35839 6.58629 5.36329 6.58629C6.98334 7.35026 9.68016 8.62189 9.98362 9.18377C9.96893 9.7703 8.3342 11.9291 5.76463 14.5512V14.5562Z" fill="black"/>
<path d="M17.9609 3.8509H23.3057C24.8131 3.8509 25.9976 4.29942 26.766 5.05846C27.4023 5.71399 27.7596 6.61103 27.7596 7.66579V7.7003C27.7596 9.68661 26.5751 10.8744 24.9159 11.3575L28.156 15.9314H25.655L22.7085 11.7222H20.0704V15.9314H17.9658V3.85583L17.9609 3.8509ZM23.1539 9.8394C24.6614 9.8394 25.6207 9.04586 25.6207 7.81859V7.78409C25.6207 6.48781 24.6957 5.78299 23.1343 5.78299H20.0655V9.8394H23.1539Z" fill="black"/>
<path d="M29.7614 3.33337H31.8366V8.21782C32.4191 7.37007 33.2609 6.63075 34.6656 6.63075C36.7066 6.63075 37.8862 8.01081 37.8862 10.1154V15.9314H35.8109V10.7562C35.8109 9.34159 35.1061 8.52834 33.8727 8.52834C32.6393 8.52834 31.8318 9.37609 31.8318 10.7907V15.9314H29.7565V3.3383L29.7614 3.33337Z" fill="black"/>
<path d="M39.4573 11.4068V11.3723C39.4573 8.76492 41.2927 6.62582 43.8769 6.62582C46.7549 6.62582 48.2134 8.90293 48.2134 11.5251C48.2134 11.7123 48.1938 11.9046 48.1791 12.1116H41.5325C41.7528 13.5951 42.8002 14.4232 44.1363 14.4232C45.1495 14.4232 45.869 14.0437 46.5836 13.3339L47.8023 14.4232C46.9458 15.4582 45.7613 16.1335 44.1021 16.1335C41.4787 16.1335 39.4573 14.2162 39.4573 11.4068ZM46.1577 10.7315C46.0207 9.38595 45.2327 8.33118 43.8623 8.33118C42.5946 8.33118 41.7038 9.31695 41.5178 10.7315H46.1626H46.1577Z" fill="black"/>
<path d="M49.853 12.6143V6.81804H51.9283V11.9933C51.9283 13.4079 52.6331 14.2014 53.8665 14.2014C55.0999 14.2014 55.9075 13.3734 55.9075 11.9588V6.81804H57.9974V15.9265H55.9075V14.5119C55.325 15.3744 54.4832 16.1187 53.0785 16.1187C51.0375 16.1187 49.8579 14.7386 49.8579 12.6143H49.853Z" fill="black"/>
<path d="M62.4121 6.81804V8.19811C62.9946 7.38485 63.7826 6.62582 65.1726 6.62582C66.4745 6.62582 67.3996 7.26656 67.8792 8.23261C68.5987 7.26656 69.558 6.62582 70.9285 6.62582C72.9009 6.62582 74.1 7.88759 74.1 10.1105V15.9265H72.0248V10.7512C72.0248 9.30216 71.3543 8.52341 70.1894 8.52341C69.0245 8.52341 68.2512 9.31695 68.2512 10.7857V15.9265H66.176V10.7315C66.176 9.31695 65.4907 8.52341 64.3406 8.52341C63.1904 8.52341 62.4024 9.38595 62.4024 10.7857V15.9265H60.3271V6.81804H62.4121Z" fill="black"/>
<path d="M75.9404 13.3043V13.2698C75.9404 11.3033 77.4674 10.3372 79.6748 10.3372C80.688 10.3372 81.4074 10.49 82.1073 10.7167V10.49C82.1073 9.19866 81.3193 8.50369 79.8657 8.50369C78.8525 8.50369 78.0988 8.73042 77.2765 9.07543L76.7284 7.43414C77.7219 6.98562 78.7008 6.68989 80.1398 6.68989C81.4955 6.68989 82.5038 7.05462 83.1401 7.71016C83.8106 8.36569 84.1189 9.33173 84.1189 10.5245V15.9265H82.0975V14.7879C81.4809 15.5272 80.5362 16.1187 79.1511 16.1187C77.4576 16.1187 75.9453 15.1329 75.9453 13.3043H75.9404ZM82.1416 12.6488V12.0278C81.613 11.8208 80.9082 11.6631 80.0859 11.6631C78.7498 11.6631 77.9618 12.2348 77.9618 13.1811V13.2156C77.9618 14.0979 78.7351 14.5957 79.7286 14.5957C81.0991 14.5957 82.1465 13.8022 82.1465 12.6439L82.1416 12.6488Z" fill="black"/>
<path d="M86.757 13.4079V8.61212H85.6117V6.81804H86.757V4.31421H88.8323V6.81804H91.2648V8.61212H88.8323V13.0826C88.8323 13.8958 89.2434 14.2211 89.9433 14.2211C90.4083 14.2211 90.8194 14.1176 91.2306 13.9106V15.6209C90.7166 15.9117 90.1489 16.0842 89.3609 16.0842C87.8338 16.0842 86.757 15.4089 86.757 13.4079Z" fill="black"/>
<path d="M92.4248 11.4215V11.387C92.4248 8.77971 94.4805 6.62582 97.2556 6.62582C100.031 6.62582 102.072 8.75013 102.072 11.3525V11.387C102.072 13.9747 100.016 16.1335 97.2213 16.1335C94.4266 16.1335 92.4248 14.0092 92.4248 11.4215ZM99.9965 11.4215V11.387C99.9965 9.78025 98.8463 8.4544 97.2213 8.4544C95.5964 8.4544 94.4951 9.76547 94.4951 11.3525V11.387C94.4951 12.9741 95.6453 14.3049 97.2556 14.3049C98.8659 14.3049 99.9965 12.9938 99.9965 11.4215Z" fill="black"/>
<path d="M103.868 3.33337H105.943V15.9265H103.868V3.33337Z" fill="black"/>
<path d="M107.725 11.4215V11.387C107.725 8.77971 109.78 6.62582 112.556 6.62582C115.331 6.62582 117.372 8.75013 117.372 11.3525V11.387C117.372 13.9747 115.316 16.1335 112.521 16.1335C109.727 16.1335 107.725 14.0092 107.725 11.4215ZM115.296 11.4215V11.387C115.296 9.78025 114.151 8.4544 112.521 8.4544C110.891 8.4544 109.795 9.76547 109.795 11.3525V11.387C109.795 12.9741 110.945 14.3049 112.556 14.3049C114.166 14.3049 115.296 12.9938 115.296 11.4215Z" fill="black"/>
<path d="M119.31 17.6318L120.083 16.0596C121.062 16.6658 122.07 17.0256 123.304 17.0256C125.154 17.0256 126.167 16.0596 126.167 14.231V13.5212C125.413 14.507 124.469 15.197 122.981 15.197C120.857 15.197 118.869 13.6099 118.869 10.9336V10.8991C118.869 8.20796 120.876 6.62089 122.981 6.62089C124.508 6.62089 125.448 7.33064 126.152 8.17346V6.80818H128.228V14.0535C128.228 15.5913 127.836 16.7299 127.082 17.4889C126.26 18.3169 124.992 18.7113 123.362 18.7113C121.875 18.7113 120.485 18.3317 119.32 17.622L119.31 17.6318ZM126.182 10.9188V10.8843C126.182 9.40073 124.963 8.38047 123.524 8.38047C122.085 8.38047 120.954 9.38102 120.954 10.8843V10.9188C120.954 12.4024 122.105 13.4226 123.524 13.4226C124.943 13.4226 126.182 12.4073 126.182 10.9188Z" fill="black"/>
<path d="M136.891 6.81804H139.049L135.452 16.1877C134.732 18.0508 133.925 18.7408 132.471 18.7408C131.615 18.7408 130.964 18.5338 130.327 18.1888L131.027 16.6362C131.404 16.8432 131.815 16.9812 132.246 16.9812C132.828 16.9812 133.19 16.7249 133.533 15.9462L129.764 6.81804H131.991L134.541 13.5804L136.891 6.81804Z" fill="black"/>
<path d="M148.559 4.80709H149.719L154.716 15.9265H153.385L152.103 13.0086H146.136L144.834 15.9265H143.567L148.564 4.80709H148.559ZM151.613 11.8701L149.122 6.25616L146.616 11.8701H151.613Z" fill="black"/>
<path d="M156.483 4.88595H160.291C163.737 4.88595 166.115 7.26656 166.115 10.3766V10.4062C166.115 13.5114 163.737 15.9265 160.291 15.9265H156.483V4.88595ZM157.721 6.03929V14.7781H160.291C163.061 14.7781 164.833 12.8854 164.833 10.4407V10.4111C164.833 7.96645 163.061 6.04422 160.291 6.04422H157.721V6.03929Z" fill="black"/>
<path d="M166.615 4.88595H167.995L171.896 14.3936L175.811 4.88595H177.142L172.429 16.0053H171.333L166.619 4.88595H166.615Z" fill="black"/>
<path d="M179.022 4.88595H180.26V15.9265H179.022V4.88595Z" fill="black"/>
<path d="M182.36 14.3197L183.128 13.4029C184.274 14.4429 185.37 14.9654 186.887 14.9654C188.405 14.9654 189.33 14.1767 189.33 13.0875V13.0579C189.33 12.0327 188.781 11.4511 186.481 10.9582C183.96 10.4062 182.8 9.58803 182.8 7.77423V7.74466C182.8 6.00972 184.318 4.73316 186.403 4.73316C187.998 4.73316 189.144 5.19154 190.255 6.08858L189.535 7.04969C188.517 6.2118 187.499 5.85199 186.373 5.85199C184.949 5.85199 184.039 6.6406 184.039 7.63622V7.66579C184.039 8.70577 184.602 9.2923 187.015 9.80982C189.457 10.3471 190.587 11.2441 190.587 12.9347V12.9643C190.587 14.8569 189.021 16.0891 186.843 16.0891C185.106 16.0891 183.681 15.5075 182.365 14.3246L182.36 14.3197Z" fill="black"/>
<path d="M191.987 10.4358V10.4062C191.987 7.36021 194.258 4.69866 197.596 4.69866C200.934 4.69866 203.171 7.33064 203.171 10.3766V10.4062C203.171 13.4522 200.9 16.1138 197.562 16.1138C194.224 16.1138 191.987 13.4818 191.987 10.4358ZM201.884 10.4358V10.4062C201.884 7.89745 200.068 5.84706 197.562 5.84706C195.056 5.84706 193.27 7.86787 193.27 10.3717V10.4013C193.27 12.91 195.085 14.9604 197.591 14.9604C200.097 14.9604 201.884 12.9396 201.884 10.4358Z" fill="black"/>
<path d="M205.006 4.88595H209.72C211.066 4.88595 212.147 5.29504 212.838 5.99C213.371 6.52724 213.684 7.30107 213.684 8.16854V8.19811C213.684 10.0267 212.431 11.1012 210.708 11.4166L214.076 15.9265H212.559L209.377 11.6384H206.245V15.9265H205.006V4.88595ZM209.612 10.5146C211.257 10.5146 212.431 9.66196 212.431 8.24246V8.21289C212.431 6.85747 211.399 6.03436 209.627 6.03436H206.245V10.5146H209.612Z" fill="black"/>
<path d="M215.877 6.42855V6.41869C215.877 5.56108 216.567 4.83655 217.438 4.83655C218.309 4.83655 219 5.55122 219 6.40883V6.41869C219 7.2763 218.309 8.00083 217.438 8.00083C216.567 8.00083 215.877 7.28616 215.877 6.42855ZM218.818 6.41869V6.40883C218.818 5.63994 218.226 5.00905 217.438 5.00905C216.65 5.00905 216.058 5.6498 216.058 6.41869V6.42855C216.058 7.19744 216.65 7.82833 217.438 7.82833C218.226 7.82833 218.818 7.18758 218.818 6.41869ZM216.826 5.58572H217.546C217.898 5.58572 218.158 5.75823 218.158 6.09339C218.158 6.35461 218.006 6.51727 217.791 6.58134L218.212 7.18758H217.845L217.468 6.63556H217.135V7.18758H216.831V5.59065L216.826 5.58572ZM217.517 6.37926C217.722 6.37926 217.84 6.27083 217.84 6.11803C217.84 5.94553 217.722 5.85681 217.517 5.85681H217.13V6.37926H217.517Z" fill="black"/>
</svg>
