<svg width="26" height="27" viewBox="0 0 26 27" fill="none" xmlns="http://www.w3.org/2000/svg">
<g clip-path="url(#clip0_284_486)">
<path d="M13 25.5282C19.8981 25.5282 25.4902 19.9362 25.4902 13.038C25.4902 6.1399 19.8981 0.547852 13 0.547852C6.10182 0.547852 0.509766 6.1399 0.509766 13.038C0.509766 19.9362 6.10182 25.5282 13 25.5282Z" fill="#49A942"/>
<path d="M19.2959 14.2785V11.7978C19.2959 11.2299 18.8355 10.7695 18.2676 10.7695H7.73202C7.16412 10.7695 6.70374 11.2299 6.70374 11.7978V14.2785C6.70374 14.8464 7.16412 15.3068 7.73202 15.3068H18.2676C18.8355 15.3068 19.2959 14.8464 19.2959 14.2785Z" fill="white"/>
</g>
<defs>
<clipPath id="clip0_284_486">
<rect width="26" height="26" fill="white" transform="translate(0 0.0380859)"/>
</clipPath>
</defs>
</svg>
