<svg width="17" height="18" viewBox="0 0 17 18" fill="none" xmlns="http://www.w3.org/2000/svg">
<path d="M9.50233 9.19141L3.75092 15.1233C3.52265 15.3588 3.15256 15.3588 2.92426 15.1234L1.50127 13.6559C1.27304 13.4205 1.273 13.0389 1.50124 12.8035L5.41635 8.76518L3.12129 6.39839L1.50131 4.72779C1.27304 4.49238 1.27304 4.11074 1.50131 3.87533L2.92429 2.40788C3.15256 2.17247 3.52265 2.17247 3.75092 2.40788L7.62051 6.39839L9.5023 8.33899C9.73054 8.57436 9.73057 8.956 9.50233 9.19141Z" fill="#33632E"/>
<path d="M7.66501 6.44634L5.4154 8.76625L4.55554 7.87951L3.12126 6.39854L1.50128 4.72793C1.27301 4.49253 1.27301 4.11088 1.50128 3.87547L2.92417 2.40812C3.15247 2.17268 3.52266 2.17272 3.75089 2.40822L6.80515 5.55957L7.66501 6.44634Z" fill="#49A942"/>
<path d="M7.66526 6.44619L5.41564 8.7661L4.87012 8.2026L7.1197 5.88269L7.66526 6.44619Z" fill="#59C052"/>
<path d="M15.4989 9.19141L9.74753 15.1233C9.51926 15.3588 9.14915 15.3588 8.92087 15.1234L7.49786 13.6559C7.26962 13.4205 7.26958 13.0389 7.49782 12.8035L11.4129 8.76518L9.11787 6.39839L7.49789 4.72779C7.26962 4.49238 7.26962 4.11074 7.49789 3.87533L8.92087 2.40788C9.14915 2.17247 9.51923 2.17247 9.7475 2.40788L13.6171 6.39839L15.4989 8.33899C15.7272 8.57436 15.7272 8.956 15.4989 9.19141Z" fill="#33632E"/>
<path d="M13.6616 6.44621L11.412 8.76612L10.5521 7.87939L9.11784 6.39841L7.49786 4.72781C7.26959 4.4924 7.26959 4.11076 7.49786 3.87535L8.92075 2.408C9.14906 2.17256 9.51924 2.17259 9.74747 2.4081L12.8017 5.55945L13.6616 6.44621Z" fill="#49A942"/>
<path d="M13.6613 6.44619L11.4117 8.7661L10.8662 8.2026L13.1158 5.88269L13.6613 6.44619Z" fill="#59C052"/>
</svg>
