<svg width="26" height="20" viewBox="0 0 26 20" fill="none" xmlns="http://www.w3.org/2000/svg">
<path d="M23.625 3.33141H1.6875C1.23995 3.33141 0.810725 3.15592 0.494257 2.84354C0.17779 2.53116 0 2.10748 0 1.66571C0 1.22393 0.17779 0.800255 0.494257 0.487874C0.810725 0.175494 1.23995 0 1.6875 0H23.625C24.0726 0 24.5018 0.175494 24.8182 0.487874C25.1347 0.800255 25.3125 1.22393 25.3125 1.66571C25.3125 2.10748 25.1347 2.53116 24.8182 2.84354C24.5018 3.15592 24.0726 3.33141 23.625 3.33141ZM23.625 19.9885H1.6875C1.23995 19.9885 0.810725 19.813 0.494257 19.5006C0.17779 19.1882 0 18.7646 0 18.3228C0 17.881 0.17779 17.4573 0.494257 17.1449C0.810725 16.8326 1.23995 16.6571 1.6875 16.6571H23.625C24.0726 16.6571 24.5018 16.8326 24.8182 17.1449C25.1347 17.4573 25.3125 17.881 25.3125 18.3228C25.3125 18.7646 25.1347 19.1882 24.8182 19.5006C24.5018 19.813 24.0726 19.9885 23.625 19.9885ZM23.625 11.66H1.6875C1.23995 11.66 0.810725 11.4845 0.494257 11.1721C0.17779 10.8597 0 10.436 0 9.99424C0 9.55247 0.17779 9.12879 0.494257 8.81641C0.810725 8.50403 1.23995 8.32854 1.6875 8.32854H23.625C24.0726 8.32854 24.5018 8.50403 24.8182 8.81641C25.1347 9.12879 25.3125 9.55247 25.3125 9.99424C25.3125 10.436 25.1347 10.8597 24.8182 11.1721C24.5018 11.4845 24.0726 11.66 23.625 11.66Z" fill="#33632E"/>
</svg>
