<svg width="16" height="19" viewBox="0 0 16 19" fill="none" xmlns="http://www.w3.org/2000/svg">
<g clip-path="url(#clip0_284_285)">
<path d="M1.34681 0.5H10.4668C11.6668 0.7504 12.5516 1.4896 13.3532 2.3688C13.8196 2.8808 14.326 3.3552 14.8196 3.8416C15.6108 4.6216 15.9852 5.5744 15.9868 6.6752C15.9868 10.0184 15.9748 13.3616 15.9972 16.7048C16.0028 17.5784 15.7116 18.1952 14.8676 18.5H1.34761C0.502808 18.1976 0.214809 17.5808 0.218809 16.708C0.237475 11.9021 0.237475 7.09627 0.218809 2.2904C0.214009 1.416 0.502812 0.8024 1.34681 0.5ZM10.3724 1.6624C10.3062 1.64507 10.2388 1.63224 10.1708 1.624C7.35694 1.62133 4.54441 1.62 1.73321 1.62C1.40041 1.62 1.34681 1.8168 1.34681 2.092C1.35001 7.036 1.35001 11.98 1.34681 16.924C1.34681 17.244 1.45641 17.3848 1.78921 17.384C6.00254 17.3792 10.2159 17.3792 14.4292 17.384C14.7572 17.384 14.8764 17.2488 14.8764 16.928C14.8711 13.4507 14.8711 9.97253 14.8764 6.4936C14.8764 6.1616 14.7516 6.1008 14.454 6.104C13.2412 6.1184 12.0284 6.1104 10.8156 6.1104H10.3732L10.3724 1.6624ZM14.162 4.98L11.5132 2.3256V4.98H14.162Z" fill="#49A942"/>
<path d="M1.34681 0.5H10.4668C11.6668 0.7504 12.5516 1.4896 13.3532 2.3688C13.8196 2.8808 14.326 3.3552 14.8196 3.8416C15.6108 4.6216 15.9852 5.5744 15.9868 6.6752C15.9868 10.0184 15.9748 13.3616 15.9972 16.7048C16.0028 17.5784 15.7116 18.1952 14.8676 18.5H1.34761C0.502808 18.1976 0.214809 17.5808 0.218809 16.708C0.237475 11.9021 0.237475 7.09627 0.218809 2.2904C0.214009 1.416 0.502812 0.8024 1.34681 0.5ZM10.3724 1.6624C10.3062 1.64507 10.2388 1.63224 10.1708 1.624C7.35694 1.62133 4.54441 1.62 1.73321 1.62C1.40041 1.62 1.34681 1.8168 1.34681 2.092C1.35001 7.036 1.35001 11.98 1.34681 16.924C1.34681 17.244 1.45641 17.3848 1.78921 17.384C6.00254 17.3792 10.2159 17.3792 14.4292 17.384C14.7572 17.384 14.8764 17.2488 14.8764 16.928C14.8711 13.4507 14.8711 9.97253 14.8764 6.4936C14.8764 6.1616 14.7516 6.1008 14.454 6.104C13.2412 6.1184 12.0284 6.1104 10.8156 6.1104H10.3732L10.3724 1.6624ZM14.162 4.98L11.5132 2.3256V4.98H14.162Z" fill="black" fill-opacity="0.1"/>
<path d="M8.33998 4.85676C8.23278 5.63356 8.11278 6.40956 8.02638 7.18876C7.99286 7.43405 8.02034 7.68382 8.10638 7.91596C8.54638 8.93196 9.14638 9.84076 10.1104 10.436C10.3022 10.5362 10.5164 10.5858 10.7328 10.58C11.5688 10.5928 12.4072 10.544 13.2408 10.5896C13.82 10.6216 14.0744 10.9096 14.0896 11.356C14.1144 12.076 13.84 12.3728 13.1176 12.3384C12.1304 12.2904 11.2336 11.9208 10.3504 11.5048C10.1641 11.4112 9.9535 11.3771 9.74718 11.4072C8.52851 11.6776 7.31492 11.9685 6.10639 12.28C5.91759 12.3296 5.73438 12.5104 5.60878 12.676C5.06158 13.396 4.57838 14.1632 3.99118 14.8448C3.50558 15.4088 3.01598 15.4736 2.49918 15.224C2.10878 15.0344 1.97118 14.7608 2.21918 14.3896C2.52234 13.9575 2.87486 13.5623 3.26958 13.212C3.54587 12.9606 3.86188 12.7568 4.20478 12.6088C4.76478 12.3688 5.12478 11.9832 5.38078 11.4408C5.89678 10.3472 6.45758 9.27516 6.97438 8.18156C7.05593 7.97838 7.07432 7.75535 7.02718 7.54156C6.82158 6.55276 6.53998 5.57676 6.61358 4.55036C6.66238 3.87436 6.88878 3.62396 7.45278 3.62476C7.96158 3.62476 8.27038 3.96556 8.30958 4.57116C8.31518 4.66396 8.30958 4.75756 8.30958 4.85116L8.33998 4.85676ZM7.52798 8.90556L6.18958 11.6368L9.13598 10.8248C8.59838 10.184 8.05518 9.53996 7.52798 8.90556ZM7.52078 6.34556L7.65118 6.32716C8.05918 5.55996 7.98398 4.31516 7.39998 3.98556C7.44238 4.81996 7.48158 5.58156 7.52078 6.34476V6.34556ZM11.6872 11.208C12.3272 11.4888 12.9552 11.8776 13.7088 11.5544C13.12 11.008 12.3904 11.176 11.6872 11.2072V11.208ZM4.42318 12.988C3.79518 13.4592 3.24558 14.0008 2.90318 14.7232C3.60078 14.3088 4.01198 13.648 4.42318 12.9872V12.988Z" fill="#49A942"/>
<path d="M8.33998 4.85676C8.23278 5.63356 8.11278 6.40956 8.02638 7.18876C7.99286 7.43405 8.02034 7.68382 8.10638 7.91596C8.54638 8.93196 9.14638 9.84076 10.1104 10.436C10.3022 10.5362 10.5164 10.5858 10.7328 10.58C11.5688 10.5928 12.4072 10.544 13.2408 10.5896C13.82 10.6216 14.0744 10.9096 14.0896 11.356C14.1144 12.076 13.84 12.3728 13.1176 12.3384C12.1304 12.2904 11.2336 11.9208 10.3504 11.5048C10.1641 11.4112 9.9535 11.3771 9.74718 11.4072C8.52851 11.6776 7.31492 11.9685 6.10639 12.28C5.91759 12.3296 5.73438 12.5104 5.60878 12.676C5.06158 13.396 4.57838 14.1632 3.99118 14.8448C3.50558 15.4088 3.01598 15.4736 2.49918 15.224C2.10878 15.0344 1.97118 14.7608 2.21918 14.3896C2.52234 13.9575 2.87486 13.5623 3.26958 13.212C3.54587 12.9606 3.86188 12.7568 4.20478 12.6088C4.76478 12.3688 5.12478 11.9832 5.38078 11.4408C5.89678 10.3472 6.45758 9.27516 6.97438 8.18156C7.05593 7.97838 7.07432 7.75535 7.02718 7.54156C6.82158 6.55276 6.53998 5.57676 6.61358 4.55036C6.66238 3.87436 6.88878 3.62396 7.45278 3.62476C7.96158 3.62476 8.27038 3.96556 8.30958 4.57116C8.31518 4.66396 8.30958 4.75756 8.30958 4.85116L8.33998 4.85676ZM7.52798 8.90556L6.18958 11.6368L9.13598 10.8248C8.59838 10.184 8.05518 9.53996 7.52798 8.90556ZM7.52078 6.34556L7.65118 6.32716C8.05918 5.55996 7.98398 4.31516 7.39998 3.98556C7.44238 4.81996 7.48158 5.58156 7.52078 6.34476V6.34556ZM11.6872 11.208C12.3272 11.4888 12.9552 11.8776 13.7088 11.5544C13.12 11.008 12.3904 11.176 11.6872 11.2072V11.208ZM4.42318 12.988C3.79518 13.4592 3.24558 14.0008 2.90318 14.7232C3.60078 14.3088 4.01198 13.648 4.42318 12.9872V12.988Z" fill="black" fill-opacity="0.1"/>
</g>
<defs>
<clipPath id="clip0_284_285">
<rect width="15.7832" height="18" fill="white" transform="translate(0.216797 0.5)"/>
</clipPath>
</defs>
</svg>
