<svg width="26" height="26" viewBox="0 0 26 26" fill="none" xmlns="http://www.w3.org/2000/svg">
<g clip-path="url(#clip0_284_197)">
<path d="M13 26C20.1797 26 26 20.1797 26 13C26 5.8203 20.1797 0 13 0C5.8203 0 0 5.8203 0 13C0 20.1797 5.8203 26 13 26Z" fill="#49A942"/>
<path d="M19.1821 11.3308H14.6692V6.81789C14.669 6.57201 14.5713 6.33623 14.3974 6.16236C14.2236 5.9885 13.9878 5.89076 13.7419 5.89062H12.2581C12.0122 5.89076 11.7764 5.9885 11.6026 6.16236C11.4287 6.33623 11.331 6.57201 11.3308 6.81789V11.3308H6.81789C6.57201 11.331 6.33623 11.4287 6.16236 11.6026C5.9885 11.7764 5.89076 12.0122 5.89062 12.2581V13.7419C5.89076 13.9878 5.9885 14.2236 6.16236 14.3974C6.33623 14.5713 6.57201 14.669 6.81789 14.6692H11.3308V19.1821C11.331 19.428 11.4287 19.6638 11.6026 19.8376C11.7764 20.0115 12.0122 20.1092 12.2581 20.1094H13.7419C13.9878 20.1092 14.2236 20.0115 14.3974 19.8376C14.5713 19.6638 14.669 19.428 14.6692 19.1821V14.6692H19.1821C19.428 14.669 19.6638 14.5713 19.8376 14.3974C20.0115 14.2236 20.1092 13.9878 20.1094 13.7419V12.2581C20.1092 12.0122 20.0115 11.7764 19.8376 11.6026C19.6638 11.4287 19.428 11.331 19.1821 11.3308Z" fill="white"/>
</g>
<defs>
<clipPath id="clip0_284_197">
<rect width="26" height="26" fill="white"/>
</clipPath>
</defs>
</svg>
