<svg width="16" height="19" viewBox="0 0 16 19" fill="none" xmlns="http://www.w3.org/2000/svg">
<path d="M1.12806 0.5H10.2481C11.4481 0.7504 12.3329 1.4896 13.1345 2.3688C13.6009 2.8808 14.1073 3.3552 14.6009 3.8416C15.3921 4.6216 15.7665 5.5744 15.7681 6.6752C15.7681 10.0184 15.7561 13.3616 15.7785 16.7048C15.7841 17.5784 15.4929 18.1952 14.6489 18.5H1.12886C0.284058 18.1976 -0.00394129 17.5808 5.87129e-05 16.708C0.0187254 11.9021 0.0187254 7.09627 5.87129e-05 2.2904C-0.00474129 1.416 0.284062 0.8024 1.12806 0.5ZM10.1537 1.6624C10.0874 1.64507 10.02 1.63224 9.95206 1.624C7.13819 1.62133 4.32566 1.62 1.51446 1.62C1.18166 1.62 1.12806 1.8168 1.12806 2.092C1.13126 7.036 1.13126 11.98 1.12806 16.924C1.12806 17.244 1.23766 17.3848 1.57046 17.384C5.78379 17.3792 9.99713 17.3792 14.2105 17.384C14.5385 17.384 14.6577 17.2488 14.6577 16.928C14.6523 13.4507 14.6523 9.97253 14.6577 6.4936C14.6577 6.1616 14.5329 6.1008 14.2353 6.104C13.0225 6.1184 11.8097 6.1104 10.5969 6.1104H10.1545L10.1537 1.6624ZM13.9433 4.98L11.2945 2.3256V4.98H13.9433Z" fill="white"/>
<path d="M8.12123 4.85676C8.01403 5.63356 7.89403 6.40956 7.80763 7.18876C7.77411 7.43405 7.80159 7.68382 7.88763 7.91596C8.32763 8.93196 8.92763 9.84076 9.89163 10.436C10.0834 10.5362 10.2977 10.5858 10.514 10.58C11.35 10.5928 12.1884 10.544 13.022 10.5896C13.6012 10.6216 13.8556 10.9096 13.8708 11.356C13.8956 12.076 13.6212 12.3728 12.8988 12.3384C11.9116 12.2904 11.0148 11.9208 10.1316 11.5048C9.94531 11.4112 9.73475 11.3771 9.52843 11.4072C8.30976 11.6776 7.09617 11.9685 5.88764 12.28C5.69884 12.3296 5.51563 12.5104 5.39003 12.676C4.84283 13.396 4.35963 14.1632 3.77243 14.8448C3.28683 15.4088 2.79723 15.4736 2.28043 15.224C1.89003 15.0344 1.75243 14.7608 2.00043 14.3896C2.30359 13.9575 2.65611 13.5623 3.05083 13.212C3.32712 12.9606 3.64313 12.7568 3.98603 12.6088C4.54603 12.3688 4.90603 11.9832 5.16203 11.4408C5.67803 10.3472 6.23883 9.27516 6.75563 8.18156C6.83718 7.97838 6.85557 7.75535 6.80843 7.54156C6.60283 6.55276 6.32123 5.57676 6.39483 4.55036C6.44363 3.87436 6.67003 3.62396 7.23403 3.62476C7.74283 3.62476 8.05163 3.96556 8.09083 4.57116C8.09643 4.66396 8.09083 4.75756 8.09083 4.85116L8.12123 4.85676ZM7.30923 8.90556L5.97083 11.6368L8.91723 10.8248C8.37963 10.184 7.83643 9.53996 7.30923 8.90556ZM7.30203 6.34556L7.43243 6.32716C7.84043 5.55996 7.76523 4.31516 7.18123 3.98556C7.22363 4.81996 7.26283 5.58156 7.30203 6.34476V6.34556ZM11.4684 11.208C12.1084 11.4888 12.7364 11.8776 13.49 11.5544C12.9012 11.008 12.1716 11.176 11.4684 11.2072V11.208ZM4.20443 12.988C3.57643 13.4592 3.02683 14.0008 2.68443 14.7232C3.38203 14.3088 3.79323 13.648 4.20443 12.9872V12.988Z" fill="white"/>
</svg>
